Coordinates
version=1
nRows=22
nColumns=24
inDegrees=yes

Units are S.I. units (second, meters, Newtons, ...)
Angles are in degrees.

endheader
time	pelvis_tilt	pelvis_list	pelvis_rotation	pelvis_tx	pelvis_ty	pelvis_tz	hip_flexion_r	hip_adduction_r	hip_rotation_r	knee_angle_r	ankle_angle_r	subtalar_angle_r	mtp_angle_r	hip_flexion_l	hip_adduction_l	hip_rotation_l	knee_angle_l	ankle_angle_l	subtalar_angle_l	mtp_angle_l	lumbar_extension	lumbar_bending	lumbar_rotation
      1.71000000	      8.31561664	     -3.55456305	     12.00597685	     -0.07687921	      1.00867913	      0.04657310	     12.64994728	     -2.94781888	    -29.22029757	    -22.28907031	     -0.21549425	      0.31357397	     13.78802188	     -6.26300191	     -4.73759157	    -12.99300578	    -20.09987637	      7.30084781	      1.90393502	      4.14925046	    -14.93832519	     -4.25312871	    -31.57160627
      1.71500000	      8.21580604	     -3.36592083	     12.30132357	     -0.07098131	      1.00759247	      0.04626827	     12.88842023	     -3.08010474	    -29.96014615	    -20.72776380	     -0.24998963	      1.12290226	     12.13303008	     -6.43804425	     -4.64116599	    -12.75911582	    -20.27027856	      7.47136794	      1.89285636	      5.18089305	    -14.93437205	     -4.38887989	    -31.81981312
      1.72000000	      8.14631263	     -3.17024015	     12.58871666	     -0.06502847	      1.00649436	      0.04600166	     13.07222900	     -3.19706398	    -30.73120680	    -19.13370539	     -0.47150391	      1.91049110	     12.06029400	     -6.66019387	     -4.55331994	    -12.56323303	    -20.44129836	      7.80457943	      2.00279137	      5.25616102	    -14.96206761	     -4.52945427	    -32.06223771
      1.72500000	      8.04657069	     -2.96158865	     12.85950893	     -0.05909208	      1.00532373	      0.04575355	     13.28759532	     -3.32765828	    -31.50998993	    -17.57016607	     -0.66824679	      2.83137756	     11.95840677	     -6.85617475	     -4.44294772	    -12.36900099	    -20.61187075	      8.11706986	      2.07928077	      5.36904571	    -14.96466515	     -4.68879561	    -32.29317642
      1.73000000	      7.92694967	     -2.75863830	     13.12106599	     -0.05312425	      1.00409825	      0.04555377	     13.52078938	     -3.44403792	    -32.30612102	    -16.03441351	     -0.84354389	      3.83518410	     11.82944364	     -7.04119250	     -4.33924509	    -12.18636558	    -20.76615088	      8.42323314	      2.17188963	      5.51621002	    -14.94289051	     -4.85502525	    -32.52589579
      1.73500000	      7.81811394	     -2.52224738	     13.36186508	     -0.04715947	      1.00285453	      0.04539057	     13.73945793	     -3.58317469	    -33.09052933	    -14.54568958	     -0.96929160	      4.95592526	     11.57480110	     -7.25376700	     -4.20112656	    -12.02200450	    -20.91368631	      8.71675336	      2.22199301	      5.76039882	    -14.94819701	     -5.06172758	    -32.78141496
      1.74000000	      7.68473146	     -2.31239176	     13.60224650	     -0.04119207	      1.00154811	      0.04527577	     13.98371648	     -3.68532769	    -33.86532636	    -13.07919188	     -1.08379720	      6.10186579	     11.29690374	     -7.42964888	     -4.09531041	    -11.85801343	    -21.07655572	      9.00928580	      2.31791915	      6.02711312	    -14.91994743	     -5.24480396	    -33.00919871
      1.74500000	      7.52685379	     -2.11786222	     13.83576749	     -0.03523435	      1.00017771	      0.04521037	     14.25939442	     -3.76809097	    -34.61860634	    -11.66097406	     -1.18887392	      7.26118441	     11.06959274	     -7.56740279	     -4.00779095	    -11.69931330	    -21.26526024	      9.29821605	      2.44669479	      6.26170818	    -14.86412622	     -5.41526765	    -33.20413782
      1.75000000	      7.35748555	     -1.91086954	     14.04812026	     -0.02928185	      0.99878249	      0.04515463	     14.55752259	     -3.86348549	    -35.33557187	    -10.34511321	     -1.05609748	      8.52283052	      9.13373331	     -7.71915369	     -3.88901090	    -11.52234148	    -21.39630223	      9.43330858	      2.37045934	      7.60426061	    -14.80197584	     -5.60303099	    -33.39749256
      1.75500000	      7.18795435	     -1.72276312	     14.25534833	     -0.02325757	      0.99737642	      0.04519831	     14.84795603	     -3.92240541	    -36.02989039	     -9.04092455	     -1.15765113	      9.65936413	      9.05618338	     -7.86590452	     -3.81655321	    -11.41430294	    -21.55909250	      9.73492830	      2.59741275	      7.68495369	    -14.73271513	     -5.78693503	    -33.60614439
      1.76000000	      7.02606769	     -1.52491576	     14.46103631	     -0.01725616	      0.99595397	      0.04522563	     15.13623784	     -3.99490441	    -36.69908729	     -7.82795166	     -1.23241292	     10.78123835	      8.91651518	     -8.02522488	     -3.72741222	    -11.27074151	    -21.71744493	     10.02453015	      2.70742167	      7.81256696	    -14.67979608	     -5.97323418	    -33.81923600
      1.76500000	      6.85301568	     -1.34198332	     14.66408304	     -0.01123112	      0.99452717	      0.04526746	     15.44255940	     -4.05829793	    -37.32993776	     -6.70686064	     -1.28126746	     11.83506415	      8.71028420	     -8.17630953	     -3.65310859	    -11.12264554	    -21.86485090	     10.29824101	      2.82445222	      7.99427679	    -14.61143098	     -6.14260456	    -34.01864459
      1.77000000	      6.68346674	     -1.16908958	     14.86049512	     -0.00517493	      0.99310233	      0.04533919	     15.75103773	     -4.11379571	    -37.90951960	     -5.68638193	     -1.29687383	     12.79395557	      8.44788645	     -8.33287560	     -3.59389861	    -10.97759973	    -22.01099266	     10.55445107	      2.94374467	      8.22408358	    -14.54074913	     -6.30482543	    -34.22230136
      1.77500000	      6.50294465	     -1.00207606	     15.04161877	      0.00088379	      0.99168002	      0.04539885	     16.08508024	     -4.17953771	    -38.40872451	     -4.81491419	     -1.06112984	     13.68629362	      6.42802320	     -8.49118729	     -3.52576497	    -10.81219920	    -22.11658134	     10.64613753	      2.89388788	      9.58523112	    -14.45813164	     -6.45620318	    -34.39744219
      1.78000000	      6.34316329	     -0.85706625	     15.23385340	      0.00700915	      0.99028609	      0.04550984	     16.39346326	     -4.22208078	    -38.87025983	     -4.02019580	     -1.03544197	     14.35798068	      6.33628555	     -8.65676092	     -3.51035689	    -10.68618846	    -22.26575603	     10.89912950	      3.10689364	      9.66989563	    -14.38962563	     -6.58683431	    -34.60347319
      1.78500000	      6.19118012	     -0.72204953	     15.42869497	      0.01316020	      0.98891413	      0.04557288	     16.70075818	     -4.27570901	    -39.29086107	     -3.36743168	     -0.97885754	     14.90286449	      6.20633056	     -8.83728031	     -3.49951092	    -10.51839462	    -22.39640097	     11.12508429	      3.23089597	      9.81689029	    -14.32435232	     -6.69236523	    -34.79280234
      1.79000000	      6.07514370	     -0.59365236	     15.61962950	      0.01938395	      0.98761640	      0.04562626	     16.96999914	     -4.33068708	    -39.67696247	     -2.85326956	     -0.88129757	     15.34938313	      5.99519699	     -9.06702270	     -3.50594336	    -10.35623723	    -22.50873804	     11.33101851	      3.33184002	     10.08113366	    -14.28961613	     -6.77927338	    -34.99136096
      1.79500000	      5.96576194	     -0.47977836	     15.81833811	      0.02565221	      0.98635413	      0.04565488	     17.23624084	     -4.39324731	    -40.02805878	     -2.48868078	     -0.75026300	     15.64657465	      5.63147816	     -9.30123401	     -3.53339170	    -10.18267739	    -22.61958409	     11.48809714	      3.43549174	     10.58675082	    -14.25596705	     -6.84476814	    -35.20091099
      1.80000000	      5.83087741	     -0.37126693	     15.99914748	      0.03192276	      0.98507132	      0.04571525	     17.53810459	     -4.47274992	    -40.19248316	     -2.27031413	     -0.56184783	     15.56143419	      5.58055680	     -9.49800763	     -3.55999004	    -10.00541597	    -22.75605164	     11.64479166	      3.56090641	     10.72779427	    -14.19181493	     -6.90967648	    -35.37607006
      1.80500000	      5.77377581	     -0.29833398	     16.20880583	      0.03834788	      0.98392923	      0.04570443	     17.73841421	     -4.51987733	    -40.44262276	     -2.17073440	     -0.31750742	     15.63195683	      4.89024773	     -9.78982157	     -3.65360787	     -9.81716261	    -22.84200830	     11.64275002	      3.61407563	     12.23588417	    -14.18715652	     -6.90868781	    -35.60220232
      1.81000000	      5.69006726	     -0.22476841	     16.40195934	      0.04478159	      0.98276671	      0.04569328	     17.97713023	     -4.59399677	    -40.54944566	     -2.22573784	     -0.08589208	     15.30701838	      4.88407436	    -10.04574576	     -3.73539339	     -9.61500769	    -22.96102040	     11.75918736	      3.71969065	     12.33118058	    -14.14973085	     -6.90544422	    -35.77544716
      1.81500000	      5.65207061	     -0.15777721	     16.60051467	      0.05128932	      0.98168738	      0.04566745	     18.15448236	     -4.66698591	    -40.62477596	     -2.39746684	      0.15198333	     14.95570088	      4.89393589	    -10.34591441	     -3.84442426	     -9.40772899	    -23.09057349	     11.87342050	      3.85213841	     12.45677928	    -14.15305992	     -6.88111541	    -35.96027551
